<svg width="11" height="11" viewBox="0 0 11 11" fill="none" xmlns="http://www.w3.org/2000/svg">
<path d="M3.30146 11C2.99896 11 2.73991 10.8922 2.52431 10.6766C2.30871 10.461 2.2011 10.2021 2.20146 9.9C2.20146 9.5975 2.30926 9.33845 2.52486 9.12285C2.74046 8.90725 2.99933 8.79963 3.30146 8.8C3.60396 8.8 3.86301 8.9078 4.07861 9.1234C4.29421 9.339 4.40183 9.59787 4.40146 9.9C4.40146 10.2025 4.29366 10.4615 4.07806 10.6771C3.86246 10.8927 3.6036 11.0004 3.30146 11ZM8.80146 11C8.49896 11 8.23991 10.8922 8.02431 10.6766C7.80871 10.461 7.7011 10.2021 7.70146 9.9C7.70146 9.5975 7.80926 9.33845 8.02486 9.12285C8.24046 8.90725 8.49933 8.79963 8.80146 8.8C9.10396 8.8 9.36301 8.9078 9.57861 9.1234C9.79421 9.339 9.90183 9.59787 9.90146 9.9C9.90146 10.2025 9.79366 10.4615 9.57806 10.6771C9.36246 10.8927 9.1036 11.0004 8.80146 11ZM2.83396 2.2L4.15396 4.95H8.00396L9.51646 2.2H2.83396ZM3.30146 8.25C2.88896 8.25 2.5773 8.06887 2.36646 7.7066C2.15563 7.34433 2.14646 6.98463 2.33896 6.6275L3.08146 5.28L1.10146 1.1H0.537715C0.381881 1.1 0.253548 1.0472 0.152715 0.941602C0.0518815 0.836002 0.00146484 0.705468 0.00146484 0.550002C0.00146484 0.394168 0.0542648 0.263452 0.159865 0.157852C0.265465 0.0522519 0.395998 -0.000364763 0.551465 1.90311e-06H1.44521C1.54605 1.90311e-06 1.6423 0.0275019 1.73396 0.0825019C1.82563 0.137502 1.89438 0.215419 1.94021 0.316252L2.31146 1.1H10.424C10.6715 1.1 10.841 1.19167 10.9327 1.375C11.0244 1.55833 11.0198 1.75083 10.919 1.9525L8.96646 5.4725C8.86563 5.65583 8.73271 5.79792 8.56771 5.89875C8.40271 5.99958 8.2148 6.05 8.00396 6.05H3.90646L3.30146 7.15H9.36521C9.52104 7.15 9.64938 7.2028 9.75021 7.3084C9.85105 7.414 9.90146 7.54453 9.90146 7.7C9.90146 7.85583 9.84866 7.98655 9.74306 8.09215C9.63746 8.19775 9.50693 8.25037 9.35146 8.25H3.30146Z" fill="#09040F"/>
</svg>
