<svg width="21" height="20" viewBox="0 0 21 20" fill="none" xmlns="http://www.w3.org/2000/svg">
<path d="M6.48018 0H14.8802C18.0802 0 20.6802 2.6 20.6802 5.8V14.2C20.6802 15.7383 20.0691 17.2135 18.9814 18.3012C17.8937 19.3889 16.4184 20 14.8802 20H6.48018C3.28018 20 0.680176 17.4 0.680176 14.2V5.8C0.680176 4.26174 1.29125 2.78649 2.37896 1.69878C3.46667 0.61107 4.94192 0 6.48018 0ZM6.28018 2C5.3254 2 4.40972 2.37928 3.73459 3.05442C3.05946 3.72955 2.68018 4.64522 2.68018 5.6V14.4C2.68018 16.39 4.29018 18 6.28018 18H15.0802C16.035 18 16.9506 17.6207 17.6258 16.9456C18.3009 16.2705 18.6802 15.3548 18.6802 14.4V5.6C18.6802 3.61 17.0702 2 15.0802 2H6.28018ZM15.9302 3.5C16.2617 3.5 16.5796 3.6317 16.8141 3.86612C17.0485 4.10054 17.1802 4.41848 17.1802 4.75C17.1802 5.08152 17.0485 5.39946 16.8141 5.63388C16.5796 5.8683 16.2617 6 15.9302 6C15.5987 6 15.2807 5.8683 15.0463 5.63388C14.8119 5.39946 14.6802 5.08152 14.6802 4.75C14.6802 4.41848 14.8119 4.10054 15.0463 3.86612C15.2807 3.6317 15.5987 3.5 15.9302 3.5ZM10.6802 5C12.0063 5 13.278 5.52678 14.2157 6.46447C15.1534 7.40215 15.6802 8.67392 15.6802 10C15.6802 11.3261 15.1534 12.5979 14.2157 13.5355C13.278 14.4732 12.0063 15 10.6802 15C9.35409 15 8.08232 14.4732 7.14464 13.5355C6.20696 12.5979 5.68018 11.3261 5.68018 10C5.68018 8.67392 6.20696 7.40215 7.14464 6.46447C8.08232 5.52678 9.35409 5 10.6802 5ZM10.6802 7C9.88453 7 9.12146 7.31607 8.55886 7.87868C7.99625 8.44129 7.68018 9.20435 7.68018 10C7.68018 10.7956 7.99625 11.5587 8.55886 12.1213C9.12146 12.6839 9.88453 13 10.6802 13C11.4758 13 12.2389 12.6839 12.8015 12.1213C13.3641 11.5587 13.6802 10.7956 13.6802 10C13.6802 9.20435 13.3641 8.44129 12.8015 7.87868C12.2389 7.31607 11.4758 7 10.6802 7Z" fill="url(#paint0_linear_1484_19)"/>
<defs>
<linearGradient id="paint0_linear_1484_19" x1="119" y1="19.9999" x2="-45.5" y2="19.9999" gradientUnits="userSpaceOnUse">
<stop stop-color="#9E2FFF"/>
<stop offset="1" stop-color="#FF9E2F"/>
</linearGradient>
</defs>
</svg>
