<svg width="448" height="417" viewBox="0 0 448 417" fill="none" xmlns="http://www.w3.org/2000/svg">
<path d="M446.33 385.6L356.33 167.6C354.668 163.574 351.848 160.132 348.228 157.71C344.608 155.289 340.35 153.996 335.995 153.996C331.64 153.996 327.382 155.289 323.762 157.71C320.142 160.132 317.322 163.574 315.66 167.6L225.66 385.6C224.541 388.273 223.961 391.142 223.954 394.04C223.946 396.938 224.512 399.809 225.617 402.488C226.723 405.167 228.347 407.601 230.396 409.651C232.446 411.7 234.88 413.325 237.559 414.43C240.237 415.536 243.108 416.102 246.007 416.095C248.905 416.088 251.773 415.509 254.447 414.39C257.12 413.271 259.546 411.635 261.586 409.576C263.625 407.516 265.237 405.074 266.33 402.39L284.66 358H387.33L405.66 402.39C407.322 406.418 410.142 409.861 413.763 412.284C417.384 414.707 421.643 416.001 426 416C429.615 415.998 433.174 415.105 436.362 413.4C439.55 411.695 442.268 409.231 444.277 406.226C446.286 403.22 447.523 399.766 447.88 396.168C448.236 392.571 447.7 388.941 446.32 385.6H446.33ZM302.83 314L336 233.65L369.17 314H302.83ZM235.84 294.92C239.258 290.199 240.663 284.314 239.746 278.558C238.829 272.803 235.666 267.646 230.95 264.22C230.75 264.07 215.95 253.09 194.46 229.49C234.11 175.81 256.57 114.74 265.73 86H298C303.835 86 309.431 83.6822 313.556 79.5564C317.682 75.4306 320 69.8348 320 64C320 58.1652 317.682 52.5694 313.556 48.4436C309.431 44.3178 303.835 42 298 42H182V22C182 16.1652 179.682 10.5694 175.556 6.44365C171.431 2.31785 165.835 0 160 0C154.165 0 148.569 2.31785 144.444 6.44365C140.318 10.5694 138 16.1652 138 22V42H22C16.1652 42 10.5694 44.3178 6.44365 48.4436C2.31785 52.5694 0 58.1652 0 64C0 69.8348 2.31785 75.4306 6.44365 79.5564C10.5694 83.6822 16.1652 86 22 86H219.25C209.73 112.95 192.2 155.5 165.46 194.36C134.05 152.68 122.38 125.71 122.29 125.49C119.991 120.176 115.689 115.983 110.318 113.819C104.947 111.656 98.9392 111.698 93.5986 113.935C88.258 116.173 84.0148 120.425 81.7892 125.771C79.5636 131.116 79.5352 137.124 81.71 142.49C82.29 143.87 96.26 176.72 134.57 226.42C135.49 227.61 136.4 228.77 137.31 229.93C98.07 274.28 59.57 301.79 43.46 310.67C38.3373 313.464 34.5344 318.179 32.8879 323.777C31.2413 329.375 31.8859 335.397 34.68 340.52C37.4741 345.643 42.1886 349.446 47.7866 351.092C53.3846 352.739 59.4073 352.094 64.53 349.3C66.69 348.12 113.13 322.41 166.16 263.71C188.68 287.79 204.16 299.15 205.09 299.81C207.43 301.51 210.082 302.731 212.895 303.405C215.707 304.078 218.625 304.191 221.481 303.736C224.337 303.281 227.075 302.267 229.539 300.753C232.003 299.238 234.144 297.253 235.84 294.91V294.92Z" fill="#DECEEC"/>
</svg>
