<svg width="21" height="20" viewBox="0 0 21 20" fill="none" xmlns="http://www.w3.org/2000/svg">
<path d="M10.6797 20C9.31302 20 8.02136 19.7373 6.80469 19.212C5.58802 18.6867 4.52536 17.97 3.61669 17.062C2.70869 16.154 1.99202 15.0917 1.46669 13.875C0.941355 12.6583 0.679022 11.3667 0.679689 10C0.679689 8.61667 0.942356 7.32067 1.46769 6.112C1.99302 4.90333 2.70969 3.84533 3.61769 2.938C4.52569 2.02933 5.58769 1.31267 6.80369 0.788C8.01969 0.263333 9.31169 0.000666667 10.6797 0C12.063 0 13.359 0.262667 14.5677 0.788C15.7764 1.31333 16.8344 2.03 17.7417 2.938C18.6504 3.846 19.367 4.90433 19.8917 6.113C20.4164 7.32167 20.679 8.61733 20.6797 10V11.45C20.6797 12.4333 20.3424 13.271 19.6677 13.963C18.993 14.655 18.1637 15.0007 17.1797 15C16.5797 15 16.0214 14.8667 15.5047 14.6C14.988 14.3333 14.563 13.9833 14.2297 13.55C13.7797 14 13.2504 14.3543 12.6417 14.613C12.033 14.8717 11.379 15.0007 10.6797 15C9.29636 15 8.11702 14.5123 7.14169 13.537C6.16636 12.5617 5.67902 11.3827 5.67969 10C5.67969 8.61667 6.16736 7.43733 7.14269 6.462C8.11802 5.48667 9.29702 4.99933 10.6797 5C12.063 5 13.2424 5.48767 14.2177 6.463C15.193 7.43833 15.6804 8.61733 15.6797 10V11.45C15.6797 11.9333 15.8297 12.3123 16.1297 12.587C16.4297 12.8617 16.7797 12.9993 17.1797 13C17.5797 13 17.9297 12.8623 18.2297 12.587C18.5297 12.3117 18.6797 11.9327 18.6797 11.45V10C18.6797 7.81667 17.892 5.93733 16.3167 4.362C14.7414 2.78667 12.8624 1.99933 10.6797 2C8.49636 2 6.61702 2.78767 5.04169 4.363C3.46636 5.93833 2.67902 7.81733 2.67969 10C2.67969 12.1833 3.46736 14.0627 5.04269 15.638C6.61802 17.2133 8.49702 18.0007 10.6797 18H15.6797V20H10.6797ZM10.6797 13C11.513 13 12.2214 12.7083 12.8047 12.125C13.388 11.5417 13.6797 10.8333 13.6797 10C13.6797 9.16667 13.388 8.45833 12.8047 7.875C12.2214 7.29167 11.513 7 10.6797 7C9.84636 7 9.13802 7.29167 8.55469 7.875C7.97136 8.45833 7.67969 9.16667 7.67969 10C7.67969 10.8333 7.97136 11.5417 8.55469 12.125C9.13802 12.7083 9.84636 13 10.6797 13Z" fill="url(#paint0_linear_1484_21)"/>
<defs>
<linearGradient id="paint0_linear_1484_21" x1="70.5" y1="20" x2="-94.5" y2="20" gradientUnits="userSpaceOnUse">
<stop stop-color="#9E2FFF"/>
<stop offset="1" stop-color="#FF9E2F"/>
</linearGradient>
</defs>
</svg>
