<svg width="21" height="20" viewBox="0 0 21 20" fill="none" xmlns="http://www.w3.org/2000/svg">
<path d="M10.6797 0C5.15969 0 0.679688 4.48 0.679688 10C0.679688 15.52 5.15969 20 10.6797 20C16.1997 20 20.6797 15.52 20.6797 10C20.6797 4.48 16.1997 0 10.6797 0ZM15.3197 6.8C15.1697 8.38 14.5197 12.22 14.1897 13.99C14.0497 14.74 13.7697 14.99 13.5097 15.02C12.9297 15.07 12.4897 14.64 11.9297 14.27C11.0497 13.69 10.5497 13.33 9.69969 12.77C8.70969 12.12 9.34969 11.76 9.91969 11.18C10.0697 11.03 12.6297 8.7 12.6797 8.49C12.6866 8.45819 12.6857 8.42517 12.677 8.3938C12.6683 8.36244 12.652 8.33367 12.6297 8.31C12.5697 8.26 12.4897 8.28 12.4197 8.29C12.3297 8.31 10.9297 9.24 8.19969 11.08C7.79969 11.35 7.43969 11.49 7.11969 11.48C6.75969 11.47 6.07969 11.28 5.56969 11.11C4.93969 10.91 4.44969 10.8 4.48969 10.45C4.50969 10.27 4.75969 10.09 5.22969 9.9C8.14969 8.63 10.0897 7.79 11.0597 7.39C13.8397 6.23 14.4097 6.03 14.7897 6.03C14.8697 6.03 15.0597 6.05 15.1797 6.15C15.2797 6.23 15.3097 6.34 15.3197 6.42C15.3097 6.48 15.3297 6.66 15.3197 6.8Z" fill="url(#paint0_linear_1484_22)"/>
<defs>
<linearGradient id="paint0_linear_1484_22" x1="20.6797" y1="20" x2="-145.5" y2="20" gradientUnits="userSpaceOnUse">
<stop stop-color="#9E2FFF"/>
<stop offset="1" stop-color="#FF9E2F"/>
</linearGradient>
</defs>
</svg>
